<svg id="svg" version="1.1" xmlns="http://www.w3.org/2000/svg" xmlns:xlink="http://www.w3.org/1999/xlink" width="400" height="391.25" viewBox="0, 0, 400,391.25"><g id="svgg"><path id="path0" d="M190.313 0.186 C 108.968 4.704,41.406 52.787,11.524 127.426 C 6.065 141.061,0.251 163.209,0.183 170.625 C 0.128 176.641,3.879 180.462,9.844 180.467 C 16.233 180.472,18.679 177.761,20.300 168.879 C 43.704 40.665,190.062 -21.724,298.875 50.129 C 387.110 108.394,406.796 230.648,341.300 313.594 C 323.160 336.567,294.387 358.867,274.637 365.259 C 225.110 381.289,180.469 362.783,189.202 329.844 C 192.520 317.329,197.308 314.608,220.000 312.339 C 249.139 309.425,263.124 302.944,275.283 286.719 C 294.271 261.380,292.466 222.807,272.131 219.364 C 269.043 218.841,262.805 219.109,250.781 220.280 C 234.323 221.883,232.302 222.011,223.125 222.021 C 208.826 222.037,209.614 222.567,203.588 208.906 C 198.226 196.754,193.500 189.227,187.275 182.929 C 145.277 140.434,50.585 163.110,20.611 222.840 C 3.794 256.353,8.651 306.046,30.935 328.461 C 71.798 369.565,142.941 302.896,133.917 231.955 C 133.172 226.103,129.733 210.878,128.986 210.132 C 128.632 209.778,115.959 209.657,112.822 209.977 C 76.113 213.728,51.142 246.714,54.966 286.406 C 55.737 294.408,58.866 297.954,65.158 297.959 C 72.365 297.964,75.313 293.680,74.720 284.063 C 73.006 256.299,87.985 234.060,110.955 230.267 C 113.668 229.819,113.554 229.689,114.112 233.878 C 118.475 266.666,99.741 305.180,73.359 317.657 C 53.370 327.111,38.777 316.171,32.504 287.031 C 23.691 246.094,41.329 211.437,80.685 192.358 C 117.409 174.555,158.705 178.057,176.072 200.446 C 179.626 205.028,181.564 208.475,185.309 216.875 C 196.790 242.631,202.749 244.715,251.875 240.164 C 258.148 239.582,264.213 239.044,265.353 238.967 L 267.424 238.828 267.785 240.032 C 271.210 251.463,265.395 269.413,255.000 279.501 C 246.428 287.818,238.583 290.558,217.344 292.652 C 188.973 295.448,177.881 302.054,171.423 320.000 C 157.002 360.074,192.222 394.082,244.948 390.994 C 262.894 389.943,281.549 385.276,293.592 378.826 C 425.442 308.202,437.044 124.354,315.156 37.129 C 279.615 11.696,232.754 -2.172,190.313 0.186 " stroke="none" fill="#049cac" fill-rule="evenodd"></path><path id="path1" d="" stroke="none" fill="#089cac" fill-rule="evenodd"></path><path id="path2" d="" stroke="none" fill="#089cac" fill-rule="evenodd"></path><path id="path3" d="" stroke="none" fill="#089cac" fill-rule="evenodd"></path><path id="path4" d="" stroke="none" fill="#089cac" fill-rule="evenodd"></path></g></svg>